<?xml version="1.0" encoding="UTF-8" standalone="no"?>
<!-- Created with Inkscape (http://www.inkscape.org/) -->

<svg
   width="31.999998"
   height="31.999998"
   viewBox="0 0 8.466666 8.4666661"
   version="1.1"
   id="svg1"
   xml:space="preserve"
   xmlns="http://www.w3.org/2000/svg"
   xmlns:svg="http://www.w3.org/2000/svg"><defs
     id="defs1" /><g
     id="layer2"><path
       id="rect15"
       style="display:inline;fill:#000000;fill-opacity:1;stroke:none;stroke-width:0.56128"
       d="m 1.7564819,0.40927734 c -0.4145885,0 -0.7482747,0.33368622 -0.7482747,0.74827476 v 6.1624145 c 0,0.4145885 0.3336862,0.7482748 0.7482747,0.7482748 h 5.0580892 c 0.4145885,0 0.7482748,-0.3336863 0.7482748,-0.7482748 V 5.7044088 L 6.5959798,6.4878235 c 0.045968,0.279828 -0.1122204,0.5644592 -0.3972501,0.5644592 h -3.709476 c -0.2850294,0 -0.5146972,-0.2296676 -0.5146972,-0.5146972 V 1.9399333 c 0,-0.2850295 0.064303,-0.5146973 0.3493326,-0.5146973 h 3.8748406 c 0.2536021,0 0.401179,0.2381904 0.3889819,0.6246877 L 7.5628459,2.9248053 V 1.1575521 c 0,-0.41458854 -0.3336863,-0.74827476 -0.7482748,-0.74827476 z M 5.9402059,2.3501324 V 3.7650331 H 2.6427327 v 1.0748698 h 3.2974732 v 1.4862142 l 2.210201,-1.9879924 z" /></g></svg>
