<?xml version="1.0" encoding="UTF-8" standalone="no"?>
<!-- Created with Inkscape (http://www.inkscape.org/) -->

<svg
   width="31.999998"
   height="31.999998"
   viewBox="0 0 8.466666 8.4666661"
   version="1.1"
   id="svg1"
   xml:space="preserve"
   xmlns="http://www.w3.org/2000/svg"
   xmlns:svg="http://www.w3.org/2000/svg"><defs
     id="defs1" /><g
     id="layer2"><path
       id="rect11"
       style="fill:#000000;fill-opacity:1;stroke:none;stroke-width:0.26544"
       d="m 4.1217827,0.80656518 a 1.4164772,1.4164772 0 0 0 1.976e-4,2.00318482 1.4164772,1.4164772 0 0 0 2.0029873,0 1.4164772,1.4164772 0 0 0 0.4009531,-0.8021039 H 6.9053343 L 7.06204,2.1679088 H 8.4974878 V 1.4786409 H 7.06204 L 6.8867588,1.6578743 H 6.5318491 a 1.4164772,1.4164772 0 0 0 -0.4066839,-0.85130912 1.4164772,1.4164772 0 0 0 -2.0033825,0 z M 4.4705665,1.155349 a 0.92323963,0.92323963 0 0 1 1.3058149,0 0.92323963,0.92323963 0 0 1 -1.976e-4,1.3056172 0.92323963,0.92323963 0 0 1 -1.3054197,0 0.92323963,0.92323963 0 0 1 -1.976e-4,-1.3056172 z m 1.1447618,3.0584287 c -0.037158,0.037157 -0.03696,0.09702 1.976e-4,0.134178 l 0.3219086,0.3219087 c 0.037158,0.037158 0.096823,0.037158 0.1339804,0 L 6.3933236,4.3479557 c 0.037157,-0.037157 0.037355,-0.09702 1.976e-4,-0.134178 L 6.0716126,3.891869 c -0.037158,-0.037158 -0.097218,-0.037158 -0.1343757,0 z M 6.2223899,3.6067161 c -0.037157,0.037157 -0.03696,0.09702 1.976e-4,0.134178 l 0.3219087,0.3219086 c 0.037158,0.037158 0.096823,0.037158 0.1339804,0 L 7.0003853,3.7408941 c 0.037157,-0.037157 0.037355,-0.09702 1.976e-4,-0.134178 L 6.6786742,3.2848074 c -0.037158,-0.037158 -0.097218,-0.037158 -0.1343756,0 z M 6.8294516,2.9996544 c -0.037158,0.037157 -0.03696,0.09702 1.976e-4,0.134178 l 0.3219086,0.3219087 c 0.037158,0.037158 0.096823,0.037158 0.1339804,0 L 7.6074469,3.1338324 c 0.037157,-0.037157 0.037355,-0.09702 1.976e-4,-0.134178 L 7.2857358,2.6777457 c -0.037158,-0.037158 -0.097218,-0.037158 -0.1343756,0 z"
       transform="matrix(1.3075278,1.3075278,-1.3075278,1.3075278,-1.142686,-6.0465602)" /></g></svg>
