<?xml version="1.0" encoding="UTF-8" standalone="no"?>
<!-- Created with Inkscape (http://www.inkscape.org/) -->

<svg
   width="31.999998"
   height="31.999998"
   viewBox="0 0 8.466666 8.4666661"
   version="1.1"
   id="svg1"
   xml:space="preserve"
   xmlns="http://www.w3.org/2000/svg"
   xmlns:svg="http://www.w3.org/2000/svg"><defs
     id="defs1" /><g
     id="layer2"><path
       id="path19"
       style="display:inline;fill:#000000;fill-opacity:1;stroke:none;stroke-width:0.404772"
       d="m 1.7564819,0.40927734 c -0.4145885,0 -0.7482747,0.33368622 -0.7482747,0.74827476 V 2.9279767 H 1.9745565 V 1.9399333 c 0,-0.2850295 0.2296678,-0.5146973 0.5146972,-0.5146973 h 3.5925456 c 0.2850297,0 0.5141805,0.2296678 0.5141805,0.5146973 v 4.5976522 c 0,0.2850296 -0.2291508,0.5146972 -0.5141805,0.5146972 H 2.4892537 c -0.2850294,0 -0.5146972,-0.2296676 -0.5146972,-0.5146972 V 5.6501486 H 1.0082072 v 1.669818 c 0,0.4145885 0.3336862,0.7482748 0.7482747,0.7482748 h 5.0580892 c 0.4145885,0 0.7482748,-0.3336863 0.7482748,-0.7482748 V 1.1575521 c 0,-0.41458854 -0.3336863,-0.74827476 -0.7482748,-0.74827476 z M 3.4845418,2.3503249 V 3.7652256 H 0.18706868 V 4.8400954 H 3.4845418 v 1.3342047 l 2.210201,-1.8359828 z" /></g></svg>
