<?xml version="1.0" encoding="UTF-8" standalone="no"?>
<!-- Created with Inkscape (http://www.inkscape.org/) -->

<svg
   width="31.999998"
   height="31.999998"
   viewBox="0 0 8.466666 8.4666661"
   version="1.1"
   id="svg1"
   xml:space="preserve"
   xmlns="http://www.w3.org/2000/svg"
   xmlns:svg="http://www.w3.org/2000/svg"><defs
     id="defs1" /><g
     id="layer2"><path
       id="rect7"
       style="fill:#000000;fill-opacity:1;stroke:none;stroke-width:0.346001"
       d="m 1.3678752,1.6019694 c -0.1425148,0 -0.2568319,0.1148338 -0.2568319,0.2573486 v 1.6371094 c 0,0.1425148 0.1143171,0.2568319 0.2568319,0.2568319 h 1.6371093 c 0.1425147,0 0.2573487,-0.1143171 0.2573487,-0.2568319 V 1.859318 c 0,-0.1425148 -0.114834,-0.2573486 -0.2573487,-0.2573486 z m 3.1104044,0.5612061 c -0.1101248,0 -0.1984375,0.088829 -0.1984375,0.1989542 v 0.6547404 c 0,0.1101247 0.088312,0.1989543 0.1984375,0.1989543 h 3.2390788 c 0.1101247,0 0.1989543,-0.088829 0.1989543,-0.1989543 V 2.3621297 c 0,-0.1101247 -0.088829,-0.1989542 -0.1989543,-0.1989542 z M 1.3678752,4.6772339 c -0.1425148,0 -0.2568319,0.1148339 -0.2568319,0.2573486 v 1.6371094 c 0,0.1425148 0.1143171,0.2568319 0.2568319,0.2568319 h 1.6371093 c 0.1425147,0 0.2573487,-0.1143171 0.2573487,-0.2568319 V 4.9345825 c 0,-0.1425147 -0.114834,-0.2573486 -0.2573487,-0.2573486 z m 3.1104044,0.561206 c -0.1101248,0 -0.1984375,0.088829 -0.1984375,0.1989543 v 0.6547404 c 0,0.1101247 0.088312,0.1989543 0.1984375,0.1989543 h 3.2390788 c 0.1101247,0 0.1989543,-0.088829 0.1989543,-0.1989543 V 5.4373942 c 0,-0.1101247 -0.088829,-0.1989543 -0.1989543,-0.1989543 z" /></g></svg>
