<?xml version="1.0" encoding="UTF-8" standalone="no"?>
<!-- Created with Inkscape (http://www.inkscape.org/) -->

<svg
   width="31.999998"
   height="31.999998"
   viewBox="0 0 8.466666 8.4666661"
   version="1.1"
   id="svg1"
   xml:space="preserve"
   xmlns="http://www.w3.org/2000/svg"
   xmlns:svg="http://www.w3.org/2000/svg"><defs
     id="defs1" /><g
     id="layer2"><path
       id="rect16"
       style="display:inline;fill:#000000;fill-opacity:1;stroke:none;stroke-width:0.352778;stroke-dasharray:none"
       d="m 2.264978,0.44596761 c -0.3754369,0 -0.6779948,0.30204119 -0.6779948,0.67747799 v 2.938322 H 2.6933757 V 2.0024618 c 0,-0.244682 0.1971513,-0.4418335 0.4418334,-0.4418335 h 2.2008993 c 0.2446821,0 0.4413167,0.1971515 0.4413167,0.4418335 v 3.2892049 c 0,0.244682 -0.1966346,0.4418335 -0.4413167,0.4418335 H 4.3645915 v 1.1063924 c 0,0.00278 1.292e-4,0.00552 0,0.00827 h 1.841748 c 0.3754369,0 0.677478,-0.3020411 0.677478,-0.677478 v -5.047239 c 0,-0.3754368 -0.3020411,-0.67747799 -0.677478,-0.67747799 z M 1.730127,4.6369263 c -0.079039,0 -0.1431438,0.071278 -0.1431438,0.1601969 v 0.936377 H 0.65112305 c -0.0889193,0 -0.16071371,0.063588 -0.16071371,0.1426269 v 0.8206218 c 0,0.079039 0.0717944,0.1426269 0.16071371,0.1426269 H 1.5869832 v 0.936377 c 0,0.088919 0.064105,0.1601969 0.1431438,0.1601969 h 0.8201049 c 0.079039,0 0.142627,-0.071278 0.142627,-0.1601969 v -0.936377 h 0.9363769 c 0.088919,0 0.160197,-0.063588 0.160197,-0.1426269 V 5.8761271 c 0,-0.079039 -0.071278,-0.1426269 -0.160197,-0.1426269 H 2.6928589 v -0.936377 c 0,-0.088919 -0.063588,-0.1601969 -0.142627,-0.1601969 z" /></g></svg>
