<?xml version="1.0" encoding="UTF-8" standalone="no"?>
<!-- Created with Inkscape (http://www.inkscape.org/) -->

<svg
   width="31.999998"
   height="31.999998"
   viewBox="0 0 8.466666 8.4666661"
   version="1.1"
   id="svg1"
   xml:space="preserve"
   xmlns="http://www.w3.org/2000/svg"
   xmlns:svg="http://www.w3.org/2000/svg"><defs
     id="defs1" /><g
     id="layer2"><path
       id="path4"
       style="display:inline;fill:#000000;fill-opacity:1;stroke:none;stroke-width:0.401238;stroke-dasharray:none"
       d="m 1.9936768,0.46922201 c -0.4270091,0 -0.7704956,0.34348659 -0.7704956,0.77049559 v 5.7407349 c 0,0.427009 0.3434865,0.7704956 0.7704956,0.7704956 h 4.4829305 c 0.4270091,0 0.7710123,-0.3434866 0.7710123,-0.7704956 V 1.8329631 L 5.8942139,0.46922201 Z M 2.3311239,1.12913 c 0.016682,8.168e-4 0.033569,0.00288 0.050643,0.0062 h 2.6225789 v 1.1022583 0.451652 H 6.591329 v 3.8933024 c 0,0.2782929 -0.2245185,0.502295 -0.5028116,0.502295 H 2.3817668 c -0.2782931,0 -0.502295,-0.2240021 -0.502295,-0.502295 V 1.6376261 c 0,-0.2608996 0.2014239,-0.520748 0.4516521,-0.5084961 z M 5.455481,1.13533 H 5.479252 L 6.5825439,2.2375895 H 5.455481 Z M 3.4065104,2.9104167 c -0.1740628,0 -0.3141927,0.14013 -0.3141927,0.3141927 v 0.7110677 h -0.214974 c -0.1740627,0 -0.3141927,0.1401302 -0.3141927,0.3141927 v 0.9921875 c 0,0.1740628 0.1401301,0.3141927 0.3141927,0.3141927 h 0.214974 v 0.5622396 c 0,0.1740628 0.1401299,0.3141927 0.3141927,0.3141927 h 1.6701823 c 0.1740627,0 0.3141927,-0.1401299 0.3141927,-0.3141927 V 5.55625 h 0.214974 c 0.1740628,0 0.3141927,-0.1401299 0.3141927,-0.3141927 V 4.2498698 c 0,-0.1740627 -0.1401299,-0.3141927 -0.3141927,-0.3141927 H 5.3908854 V 3.2246094 c 0,-0.1740627 -0.14013,-0.3141927 -0.3141927,-0.3141927 z m 0.3126424,0.3033406 h 1.0448975 c 0.1089457,0 0.1968872,0.087425 0.1968872,0.1963705 V 3.9356771 H 3.5222656 V 3.4101278 c 0,-0.1089457 0.087941,-0.1963705 0.1968872,-0.1963705 z m 1.2412679,1.8324463 c 0,0 5.168e-4,0.591155 5.168e-4,0.8867676 0,0.1089458 -0.087942,0.1963704 -0.1968872,0.1963704 H 3.7191528 c -0.1089457,0 -0.1968872,-0.087425 -0.1968872,-0.1963704 1.728e-4,-0.2952595 -5.167e-4,-0.8857341 -5.167e-4,-0.8857341 z" /></g></svg>
