<?xml version="1.0" encoding="UTF-8" standalone="no"?>
<!-- Created with Inkscape (http://www.inkscape.org/) -->

<svg
   width="31.999998"
   height="31.999998"
   viewBox="0 0 8.466666 8.4666661"
   version="1.1"
   id="svg1"
   xml:space="preserve"
   xmlns="http://www.w3.org/2000/svg"
   xmlns:svg="http://www.w3.org/2000/svg"><defs
     id="defs1" /><g
     id="layer2"><path
       id="rect14"
       style="display:inline;fill:#000000;fill-opacity:1;stroke:none;stroke-width:0.304169"
       d="M 2.9120846,3.3241762 C 2.7486654,3.3243337 2.6163095,3.3894746 2.6158523,3.6880389 H 2.1622814 c -0.1049449,0 -0.2007106,0.06967 -0.2741546,0.1852849 H 1.5536079 c -0.1467386,0 -0.2649323,0.1181936 -0.2649323,0.2649323 v 3.3647521 c 0,0.1467387 0.1181937,0.2649323 0.2649323,0.2649323 h 2.7074516 c 0.1467386,0 0.2649323,-0.1181936 0.2649323,-0.2649323 V 4.1382561 c 0,-0.1467387 -0.1181937,-0.2649323 -0.2649323,-0.2649323 H 3.934645 C 3.8634525,3.7579683 3.7727023,3.6880389 3.6680359,3.6880389 H 3.2088758 C 3.2084183,3.3892351 3.075635,3.3239954 2.9120846,3.3241762 Z M 1.7612499,4.2274053 c -0.00485,0.028775 -0.00875,0.05846 -0.011737,0.08859 -0.016115,0.1196121 -0.00532,0.1168162 0.1115064,0.1168162 0,0 1.8776988,0.00402 2.0568584,0 0.1791596,-0.00402 0.1821169,-0.00152 0.1618099,-0.1285537 -0.00415,-0.025946 -0.00879,-0.051338 -0.013973,-0.076294 0.1078269,0.00667 0.1660018,0.070926 0.1660018,0.1844466 v 2.7845838 c 0,0.120059 -0.096805,0.2168644 -0.2168644,0.2168644 H 1.799816 c -0.1200589,0 -0.2168644,-0.096805 -0.2168644,-0.2168644 V 4.4124108 c 0,-0.1177823 0.062565,-0.1825882 0.1782983,-0.1850055 z M 3.6185707,5.141813 2.6541389,6.1439725 2.1988913,5.6571454 2.0627921,6.0428064 2.6952202,6.6531568 3.6658002,5.5559793 Z"
       transform="matrix(1.8491236,0,0,1.8491236,-1.142686,-6.0465602)" /></g></svg>
