<?xml version="1.0" encoding="UTF-8" standalone="no"?>
<!-- Created with Inkscape (http://www.inkscape.org/) -->

<svg
   width="31.999998"
   height="31.999998"
   viewBox="0 0 8.466666 8.4666661"
   version="1.1"
   id="svg1"
   xml:space="preserve"
   xmlns="http://www.w3.org/2000/svg"
   xmlns:svg="http://www.w3.org/2000/svg"><defs
     id="defs1" /><g
     id="layer2"><path
       id="rect8"
       style="display:inline;fill:#000000;fill-opacity:1;stroke:none;stroke-width:0.14476"
       d="m 1.2447996,3.5304209 c -0.1549478,0 -0.27974389,0.1247961 -0.27974389,0.2797439 v 2.4014381 c 0,0.1549478 0.12479609,0.2797439 0.27974389,0.2797439 h 1.957928 c 0.1549478,0 0.2797439,-0.1247961 0.2797439,-0.2797439 V 3.8101648 c 0,-0.1549478 -0.1247961,-0.2797439 -0.2797439,-0.2797439 z m 0.3758797,0.4532913 h 1.2061686 c 0.1175988,0 0.212393,0.094514 0.212393,0.2121135 v 1.6200555 c 0,0.1175988 -0.094794,0.212393 -0.212393,0.212393 H 1.6206793 c -0.1175989,0 -0.212393,-0.094794 -0.212393,-0.212393 V 4.1958257 c 0,-0.1175988 0.094794,-0.2121135 0.212393,-0.2121135 z M 3.781219,4.3886562 V 4.6393358 H 4.5913865 V 4.3886562 Z m 0,0.617337 V 5.5171337 H 4.5913865 V 5.0059932 Z m 0,0.8775184 V 6.7344809 H 3.361184 L 4.1906345,7.6173091 5.0021993,6.7344809 H 4.5913865 V 5.8835116 Z"
       transform="matrix(1.8491236,0,0,1.8491236,-1.142686,-6.0465602)" /></g></svg>
