<?xml version="1.0" encoding="UTF-8" standalone="no"?>
<!-- Created with Inkscape (http://www.inkscape.org/) -->

<svg
   width="31.999998"
   height="31.999998"
   viewBox="0 0 8.466666 8.4666661"
   version="1.1"
   id="svg1"
   xml:space="preserve"
   xmlns="http://www.w3.org/2000/svg"
   xmlns:svg="http://www.w3.org/2000/svg"><defs
     id="defs1" /><g
     id="layer2"><path
       id="path31"
       style="display:inline;fill:#000000;fill-opacity:1;stroke:none;stroke-width:0.55867"
       d="m 1.758549,0.44441732 c -0.4171882,0 -0.7529256,0.33573746 -0.7529256,0.75292558 v 6.1179729 c 0,0.4171882 0.3357374,0.7529256 0.7529256,0.7529256 h 5.089095 c 0.4171883,0 0.7529257,-0.3357374 0.7529257,-0.7529256 V 1.1973429 c 0,-0.41718812 -0.3357374,-0.75292558 -0.7529257,-0.75292558 z M 2.3828003,1.3797607 H 6.222876 c 0.3148108,0 0.5684407,0.25363 0.5684407,0.5684408 V 6.3572347 L 4.4384888,3.5579224 c 0,0 0.5607097,-0.7479027 0.080098,-1.4154175 C 4.0379768,1.4749902 3.3703374,1.6887862 3.3703369,1.6887858 L 4.0111247,2.7037109 2.9698446,3.3708537 2.3021851,2.2494751 c 0,0 -0.5607098,0.7746065 -0.080099,1.335319 0.4806105,0.5607123 1.335319,0.4268473 1.335319,0.4268473 0,0 1.059687,2.0890868 1.6288411,3.1212565 H 2.3828003 c -0.3148108,0 -0.567924,-0.2536299 -0.567924,-0.5684407 V 1.9482015 c 0,-0.3148108 0.2531132,-0.5684408 0.567924,-0.5684408 z" /></g></svg>
