<?xml version="1.0" encoding="UTF-8" standalone="no"?>
<!-- Created with Inkscape (http://www.inkscape.org/) -->

<svg
   width="31.999998"
   height="31.999998"
   viewBox="0 0 8.466666 8.4666661"
   version="1.1"
   id="svg1"
   xml:space="preserve"
   xmlns="http://www.w3.org/2000/svg"
   xmlns:svg="http://www.w3.org/2000/svg"><defs
     id="defs1" /><g
     id="layer2"><path
       id="path28"
       style="display:inline;fill:#000000;fill-opacity:1;stroke:none;stroke-width:0.431376"
       d="M 5.5014205,0.31170162 C 5.323684,0.30943565 5.0272334,0.39867888 5.0272334,0.39867888 L 0.87229725,1.9874635 c 0,0 -0.22905715,0.084517 -0.2982997,0.2003699 -0.0692426,0.115854 -0.0438108,0.448416 -0.0438108,0.448416 L 0.64680055,5.289378 2.8218767,4.2913946 C 2.5574778,4.2399142 2.2354724,4.0950712 1.9669222,3.7302302 1.3288024,2.8633069 2.1063988,2.0787135 2.1550508,2.0383613 2.2037015,1.9980127 2.3768759,1.8268712 2.4378879,1.9043519 2.4989005,1.9818332 3.060903,2.9513003 3.060903,2.9513003 L 3.6156247,2.5267226 3.0164479,1.6356887 C 2.8894247,1.4257689 4.1564432,1.0547835 4.7334435,1.9378541 5.1366173,2.5548915 5.017856,3.0740078 4.9067537,3.3352888 L 7.0025837,2.3740291 5.9021602,0.55137212 c 0,0 -0.1783961,-0.1960183 -0.3330906,-0.23258348 -0.019342,-0.004565 -0.042257,-0.006764 -0.067649,-0.007087 z M 3.607249,1.6563057 c -0.1426814,0.00235 -0.2370933,0.032858 -0.2370936,0.032858 L 4.01121,2.7032541 2.9700601,3.3707241 2.3025901,2.2496837 c 0,0 -0.5611457,0.7742276 -0.080535,1.3349401 0.4806105,0.5607122 1.3355844,0.4271549 1.3355844,0.4271549 0,0 1.8685479,3.6846148 1.9753502,3.6846148 0.1068028,0 1.5488395,0.2937899 1.5488395,0.2937899 L 6.9748798,6.5753531 4.4383652,3.5575642 c 0,0 0.5605013,-0.7473153 0.07989,-1.4148303 C 4.2178737,1.7255374 3.8450512,1.6523945 3.607249,1.6563057 Z M 7.7074216,2.229067 C 7.4687473,2.236217 7.1116828,2.5007433 6.6636945,2.8997584 6.4378988,3.1008705 5.9178042,3.613997 5.3583912,4.1747805 L 6.1134829,5.0799884 C 7.0688449,4.5772675 7.7872676,4.1971431 7.8865303,4.1444996 8.2338854,3.9602824 8.2290524,3.8017918 8.217044,3.6078177 8.1882545,3.1427752 8.0488389,2.4746214 7.9058588,2.3121786 7.8535438,2.2527425 7.7869799,2.226684 7.7074216,2.229067 Z M 6.4485064,2.8404848 4.8584331,3.5749596 5.1689742,3.9479953 5.3261775,3.8751923 Z M 3.3379417,4.2907502 c 0,0 -0.017888,0.00494 -0.050254,0.010309 H 3.2870439 L 0.69061136,5.5007007 0.66097481,6.0328726 3.5524855,4.696 V 4.6953556 C 3.4210263,4.4477467 3.3379417,4.2907502 3.3379417,4.2907502 Z M 3.6549255,4.8892827 0.67579297,6.2441953 0.69061136,6.9077996 3.9003947,5.3486516 C 3.8116638,5.1828826 3.7284434,5.0274284 3.6549255,4.8892827 Z M 4.0047673,5.5432228 C 3.6517761,5.9022185 3.4107449,6.1488423 3.4107449,6.1488423 2.3643089,6.7417538 1.3752148,7.3764837 0.49088574,7.9495939 0.0067562,8.2633453 2.1650615,7.1481064 4.274719,6.0444697 4.1828448,5.8747163 4.0919733,5.705702 4.0047673,5.5432228 Z M 3.4526229,5.8692267 0.70478539,7.2396018 V 7.6184361 L 3.1788056,6.1146957 Z" /></g></svg>
