<?xml version="1.0" encoding="UTF-8" standalone="no"?>
<!-- Created with Inkscape (http://www.inkscape.org/) -->

<svg
   width="31.999998"
   height="31.999998"
   viewBox="0 0 8.466666 8.4666661"
   version="1.1"
   id="svg1"
   xml:space="preserve"
   xmlns="http://www.w3.org/2000/svg"
   xmlns:svg="http://www.w3.org/2000/svg"><defs
     id="defs1" /><g
     id="layer2"><path
       id="path2"
       style="display:inline;fill:#000000;fill-opacity:1;stroke:none;stroke-width:0.264583"
       d="m 4.192509,0.98081868 c -0.1492102,0 -0.2692343,0.12002392 -0.2692343,0.26923422 v 0.530717 A 2.3362267,2.3362267 0 0 0 3.2080729,2.0267497 L 2.8866455,1.5906006 C 2.798146,1.4704693 2.6300557,1.4452569 2.5099243,1.5337565 L 2.3554118,1.6479614 c -0.1201313,0.0885 -0.1458604,0.25659 -0.057361,0.3767212 L 2.6261963,2.4701335 A 2.3362267,2.3362267 0 0 0 2.2758301,2.9455566 L 1.749764,2.7435018 C 1.6104785,2.6899926 1.4554908,2.7592456 1.4019816,2.8985311 l -0.069246,0.179834 c -0.05351,0.1392855 0.015743,0.2942732 0.1550289,0.3477824 l 0.5358846,0.2056722 a 2.3362267,2.3362267 0 0 0 -0.043925,0.4521687 2.3362267,2.3362267 0 0 0 0.05426,0.5012614 L 1.4877645,4.7950562 C 1.348479,4.8485654 1.279226,5.0040698 1.3327352,5.1433553 l 0.069246,0.179834 C 1.4554908,5.4624748 1.6104785,5.531211 1.749764,5.4777018 L 2.3006348,5.2663452 a 2.3362267,2.3362267 0 0 0 0.3482991,0.4542359 l -0.350883,0.4764567 c -0.088499,0.1201313 -0.06277,0.2877049 0.057361,0.3762044 l 0.1545125,0.1142049 c 0.1201314,0.0885 0.2882216,0.063287 0.3767212,-0.056844 L 3.236495,6.1556966 A 2.3362267,2.3362267 0 0 0 3.9232747,6.387207 v 0.5839437 c 0,0.1492102 0.1200241,0.2692342 0.2692343,0.2692342 h 0.192753 c 0.1492103,0 0.2692343,-0.120024 0.2692343,-0.2692342 V 6.3954753 A 2.3362267,2.3362267 0 0 0 5.3562622,6.1758504 L 5.6911255,6.630603 c 0.0885,0.1201314 0.2565899,0.1453436 0.3767212,0.056844 L 6.222876,6.5732422 C 6.3430073,6.4847422 6.3687364,6.3171691 6.280237,6.1970378 L 5.9520915,5.7515869 A 2.3362267,2.3362267 0 0 0 6.3210612,5.2828817 L 6.828007,5.4777018 c 0.1392855,0.053509 0.29479,-0.015227 0.3482992,-0.1545125 l 0.06873,-0.179834 C 7.298545,5.0040698 7.2298088,4.8485654 7.0905233,4.7950562 L 6.593396,4.6043701 a 2.3362267,2.3362267 0 0 1 0,-5.167e-4 A 2.3362267,2.3362267 0 0 0 6.65179,4.0839884 2.3362267,2.3362267 0 0 0 6.604248,3.6132161 L 7.0905233,3.4261475 C 7.2298088,3.3726383 7.298545,3.2176506 7.2450358,3.0783651 l -0.06873,-0.179834 C 7.122797,2.7592456 6.9672925,2.6899926 6.828007,2.7435018 L 6.3463826,2.9285034 A 2.3362267,2.3362267 0 0 0 5.9748291,2.4391276 L 6.2802368,2.0246826 C 6.3687363,1.9045514 6.3430073,1.736461 6.222876,1.6479614 L 6.0678467,1.5337565 C 5.9477154,1.445257 5.779625,1.4704693 5.6911255,1.5906006 L 5.3846842,2.0065959 A 2.3362267,2.3362267 0 0 0 4.6544963,1.7725016 V 1.2500529 c 0,-0.1492103 -0.1200241,-0.26923422 -0.2692343,-0.26923422 z M 4.3160156,2.425175 A 1.6585425,1.6585425 0 0 1 5.9743123,4.0839884 1.6585425,1.6585425 0 0 1 4.3160156,5.7422852 1.6585425,1.6585425 0 0 1 2.6572021,4.0839884 1.6585425,1.6585425 0 0 1 4.3160156,2.425175 Z" /></g></svg>
