<?xml version="1.0" encoding="UTF-8" standalone="no"?>
<!-- Created with Inkscape (http://www.inkscape.org/) -->

<svg
   width="31.999998"
   height="31.999998"
   viewBox="0 0 8.466666 8.4666661"
   version="1.1"
   id="svg1"
   xml:space="preserve"
   xmlns="http://www.w3.org/2000/svg"
   xmlns:svg="http://www.w3.org/2000/svg"><defs
     id="defs1" /><g
     id="layer2"><path
       id="path22"
       style="fill:#000000;fill-opacity:1;stroke:none;stroke-width:0.187116"
       d="M 3.4668215,3.8741622 C 3.3897256,3.8731793 3.2611357,3.9118899 3.2611357,3.9118899 L 1.4588694,4.6010493 c 0,0 -0.099357,0.03666 -0.129392,0.086913 C 1.2994424,4.7382157 1.3104738,4.88247 1.3104738,4.88247 L 1.3610568,6.0333046 4.1179737,4.7687279 3.6406484,3.978123 c 0,0 -0.077382,-0.085026 -0.1444831,-0.1008867 -0.00839,-0.00198 -0.01833,-0.00293 -0.029344,-0.00307 z M 4.4237078,4.7058484 C 4.3201792,4.7089498 4.1652971,4.8236921 3.9709754,4.9967709 3.7118799,5.2275426 2.5599594,6.4061102 2.5599594,6.4061102 2.106052,6.6632945 1.6770175,6.9386181 1.2934264,7.1872133 0.90983537,7.4358084 4.3507284,5.6166034 4.5013989,5.5366963 4.6520694,5.4567893 4.649973,5.3880416 4.6447642,5.3039024 4.6322763,5.1021832 4.5718027,4.8123613 4.5097829,4.7418993 4.4870905,4.716118 4.4582174,4.7048147 4.4237078,4.7058484 Z M 3.8776343,4.9710602 1.3800604,6.1249689 1.3672051,6.3558066 3.3908072,5.4198801 Z m -0.6195727,0.6195727 -1.8844289,0.856838 0.00643,0.2878484 1.4322554,-0.695587 z m -0.679937,0.6941897 -1.191916,0.5944209 v 0.1643251 l 1.0731436,-0.65227 z"
       transform="matrix(1.8491236,0,0,1.8491236,-1.142686,-6.0465602)" /></g></svg>
