<?xml version="1.0" encoding="UTF-8" standalone="no"?>
<!-- Created with Inkscape (http://www.inkscape.org/) -->

<svg
   width="31.999998"
   height="31.999998"
   viewBox="0 0 8.466666 8.4666661"
   version="1.1"
   id="svg1"
   xml:space="preserve"
   xmlns="http://www.w3.org/2000/svg"
   xmlns:svg="http://www.w3.org/2000/svg"><defs
     id="defs1" /><g
     id="layer2"><path
       id="path3"
       style="fill:#000000;fill-opacity:1;stroke:none;stroke-width:0.346;stroke-dasharray:none"
       d="M 4.9876769,1.9355242 C 4.6397136,1.935508 4.3576296,2.2175921 4.3576458,2.5655554 c -1.577e-4,0.030138 0.00185,0.060248 0.006,0.090099 H 4.1153757 c 0.00312,-0.025465 0.00468,-0.051096 0.00467,-0.076751 C 4.1200655,2.2309401 3.8379814,1.948856 3.490018,1.9488722 3.283752,1.9488658 3.1098394,2.0829613 2.9549446,2.2191716 L 1.2855761,3.6871696 C 0.88036469,4.0720914 0.56763183,4.5500427 0.56744737,5.0983609 0.56761989,6.0248372 1.3188296,6.7757481 2.2453059,6.775552 3.1715216,6.7753796 3.9223246,6.0245766 3.9224971,5.0983609 v -0.00267 l 0.050723,-0.4783142 h 0.5339247 l 0.048053,0.4422751 v 0.00333 l 6.674e-4,0.00668 c 3.655e-4,0.07795 0.00616,0.1557806 0.017353,0.2329247 l 6.673e-4,0.00733 6.675e-4,-6.675e-4 C 4.6966527,6.1309061 5.4017097,6.739463 6.2323891,6.7401795 7.1588653,6.7403756 7.9100751,5.9894646 7.9102476,5.0629884 7.9103044,4.4602446 7.4947162,3.9900083 7.0866956,3.5819877 L 5.534004,2.2146484 C 5.3760281,2.0566725 5.2046962,1.9355379 4.9876769,1.9355242 Z M 6.2330564,3.7722254 C 6.9455287,3.7722928 7.5230847,4.3498487 7.5231522,5.062321 7.5230847,5.7747933 6.9455287,6.3523492 6.2330564,6.3524166 5.5205842,6.3523491 4.9430283,5.7747932 4.9429608,5.062321 4.9430283,4.3498488 5.5205842,3.7722929 6.2330564,3.7722254 Z m -3.988418,0.03604 C 2.9573712,3.8079641 3.5353341,4.385628 3.5354016,5.0983609 3.5357031,5.8113546 2.9576321,6.3894256 2.2446384,6.3891241 1.5319055,6.3890567 0.95424152,5.8110938 0.95454281,5.0983609 0.95461034,4.3858888 1.5321663,3.8083329 2.2446384,3.8082654 Z" /></g></svg>
